# Blender 4.2.3 LTS
# www.blender.org
mtllib Meteor2.mtl
o Icosphere
v 0.000000 -0.000000 -3.779617
v 4.724571 -3.266073 -1.690314
v -1.804595 -5.493245 -1.186263
v -5.559516 0.034131 -1.617463
v -1.776387 5.223454 -1.669123
v 4.724584 3.266080 -1.690319
v 1.804334 -5.283914 1.690022
v -4.724584 -3.266080 1.690319
v -4.572885 3.159816 1.636032
v 1.731264 5.907743 1.628508
v 5.731810 0.011249 1.652608
v 0.005937 0.014350 3.580617
v -1.520140 -4.660232 -1.981114
v -1.060706 -3.314799 -2.711092
v -0.497621 -1.448166 -3.605062
v 1.249955 -0.859601 -3.526672
v 2.777021 -1.919740 -3.215147
v 3.979493 -2.751015 -2.484866
v 3.473130 -4.443685 -1.394439
v 1.716326 -5.234571 -1.483030
v -0.193521 -5.577331 -1.394452
v 5.306264 1.834137 -1.898427
v 5.554058 -0.000000 -1.987081
v 5.252311 -1.823831 -1.880509
v 1.326611 0.917079 -3.658479
v 2.777021 1.919740 -3.215147
v 3.979858 2.751255 -2.485170
v -4.919378 -0.000000 -2.485154
v -3.270535 -0.000007 -3.063351
v -1.639791 -0.000000 -3.658476
v -3.159950 -4.660241 -1.394451
v -4.385971 -3.249603 -1.442834
v -5.182953 -1.375537 -1.815395
v -1.520140 4.451664 -2.485171
v -1.033358 3.035601 -3.147593
v -0.476340 1.352445 -3.470234
v -5.424565 1.483146 -1.897888
v -4.493332 3.106242 -1.987082
v -2.972874 4.260702 -1.808073
v -0.193521 5.368764 -1.898509
v 1.626233 4.817770 -1.900160
v 3.335401 4.002547 -1.812115
v 5.378117 -0.898146 0.943874
v 5.933348 -1.826248 -0.001769
v 5.213725 -2.585460 -0.910878
v 5.331246 2.612622 -0.924722
v 6.191671 1.912946 0.001208
v 5.738052 0.971673 0.981366
v 0.992471 -5.611192 0.917496
v -0.000001 -6.196499 0.000007
v -1.013432 -5.935582 -0.949256
v 4.224396 -3.986609 -0.918445
v 3.837775 -5.026034 0.000000
v 2.771600 -5.228225 0.936985
v -5.619675 -2.751262 0.949254
v -5.919333 -1.819505 -0.007348
v -5.752608 -0.809207 -0.888392
v -2.683823 -5.344450 -0.417102
v -3.837775 -5.026035 0.000000
v -4.486602 -4.235172 0.949258
v -4.263340 3.983103 0.906838
v -3.784774 4.959790 0.001397
v -2.840182 5.358762 -0.947776
v -5.866595 0.849211 -0.903795
v -6.190800 1.913536 0.001665
v -5.627088 2.757625 0.954767
v 2.846780 5.805170 0.949258
v 4.481531 4.959839 -0.001412
v 4.286499 3.997125 -0.916224
v -1.013432 5.935581 -0.949257
v -0.000837 5.857094 -0.000274
v 1.013432 6.420106 0.949256
v 5.426104 -1.483882 1.898497
v 4.493332 -3.106242 1.987082
v 2.970538 -4.239369 1.790826
v 0.193521 -5.368764 1.898509
v -1.656054 -4.866524 1.920572
v -3.318783 -3.958536 1.782897
v -5.306479 -1.834171 1.898504
v -5.344298 0.011533 1.906184
v -5.306569 1.834285 1.898607
v -3.338320 4.016867 1.805223
v -1.628183 5.220440 1.897363
v 0.231543 5.642643 1.790179
v 3.464571 5.107212 1.860337
v 5.195532 2.974633 1.903237
v 5.428421 1.485697 1.900844
v 0.506710 -1.483879 3.658482
v 1.060706 -3.106232 3.215148
v 1.465161 -4.293252 2.363135
v 5.006138 -0.000139 2.533000
v 3.298944 -0.001977 3.059142
v 1.535378 -0.001601 3.493675
v -1.191979 -0.842519 3.427461
v -2.627361 -1.832151 3.030065
v -3.979858 -2.751255 2.485170
v -1.326611 0.917080 3.658479
v -2.635514 1.815325 3.055402
v -3.902101 2.688217 2.422660
v 0.506710 2.419803 3.914851
v 1.060706 4.042158 3.471519
v 1.520140 5.387590 2.741542
v 0.344679 -4.483934 -2.230919
v 0.902328 -2.642314 -3.380600
v 2.362300 -3.860159 -2.230916
v 4.225125 0.951121 -2.639473
v 4.379908 -1.009273 -2.734969
v 2.817284 0.009376 -3.185114
v -3.983200 -1.591672 -2.641454
v -2.362277 -1.633051 -3.380597
v -2.919931 -3.474669 -2.230914
v -2.763681 3.033274 -2.602666
v -2.362276 1.633039 -3.380599
v -4.075958 1.605125 -2.683875
v 2.176121 3.436424 -2.602650
v 0.852092 2.523247 -3.188467
v 0.344671 4.275373 -2.734973
v 5.877976 -0.004032 -0.005234
v 4.978501 -0.908087 -0.963166
v 5.830679 0.909670 -0.966397
v 2.010062 -5.888998 -0.001452
v 0.902331 -5.908450 -1.044676
v 2.764850 -5.096809 -0.995872
v -5.282250 -3.651617 0.000000
v -5.131439 -2.465364 -0.944898
v -4.105153 -3.982461 -0.959858
v -4.918958 3.381227 -0.011008
v -4.177971 4.010161 -0.965924
v -5.305621 2.514545 -0.966758
v 1.935853 6.074335 -0.026656
v 2.919198 5.283618 -1.044436
v 0.902331 5.908450 -1.044677
v 4.379926 -4.275394 1.044672
v 5.282252 -3.651615 -0.000007
v 5.626899 -2.642330 1.044665
v -2.787846 -5.066364 0.983925
v -2.010105 -5.888860 0.002201
v -0.900004 -5.545996 0.965926
v -6.452967 1.080863 1.100711
v -6.692056 -0.004034 -0.005232
v -6.046728 -0.949871 1.005747
v -0.902327 5.908451 1.044675
v -1.941118 5.684386 0.024937
v -2.915288 5.278349 1.043196
v 5.627760 2.642995 1.045448
v 4.920787 3.377391 0.026519
v 5.007360 4.317438 0.959806
v 2.285690 -1.582959 3.336662
v 2.908552 -3.248831 2.722877
v 4.166899 -1.633049 2.620989
v -0.902319 -2.642307 3.380603
v -2.277683 -3.565689 2.668084
v -0.344674 -4.275364 2.734978
v -2.781159 -0.002821 3.146467
v -4.327197 0.987516 2.700734
v -4.379902 -1.009268 2.734972
v -0.902319 3.333072 3.636974
v -0.344674 5.043054 2.991349
v -2.247743 3.517448 2.648612
v 2.279587 2.506104 3.452602
v 4.653430 1.568257 2.607893
v 2.860833 4.122714 2.942589
vn 0.0951 -0.1513 -0.9839
vn 0.5835 -0.3124 -0.7496
vn -0.0733 -0.0945 -0.9928
vn -0.0722 0.1982 -0.9775
vn -0.0525 0.2051 -0.9773
vn 0.8987 -0.3616 -0.2483
vn -0.1312 -0.6402 -0.7569
vn -0.8829 -0.1747 -0.4359
vn -0.3978 0.5951 -0.6983
vn 0.4455 0.7630 -0.4684
vn 0.8169 -0.5767 -0.0090
vn -0.3998 -0.8699 -0.2888
vn -0.9422 -0.0678 -0.3280
vn -0.2559 0.8090 -0.5291
vn 0.7924 0.5987 -0.1169
vn 0.3314 -0.4500 0.8293
vn -0.3457 -0.6060 0.7164
vn -0.5361 0.4395 0.7207
vn -0.1172 0.9081 0.4021
vn 0.7703 0.0515 0.6356
vn -0.1300 -0.6609 -0.7391
vn -0.0758 -0.4554 -0.8871
vn -0.1791 -0.3805 -0.9073
vn -0.0521 -0.5905 -0.8054
vn 0.0771 -0.6295 -0.7732
vn -0.1218 -0.4988 -0.8581
vn 0.1727 -0.5587 -0.8112
vn 0.1638 -0.5298 -0.8322
vn 0.2909 -0.5592 -0.7764
vn 0.0770 -0.0963 -0.9924
vn 0.1278 -0.1057 -0.9862
vn 0.2591 -0.4804 -0.8379
vn 0.1919 -0.4763 -0.8581
vn 0.2754 -0.5775 -0.7686
vn 0.3732 -0.5788 -0.7251
vn 0.5667 0.3393 -0.7508
vn 0.4999 0.1091 -0.8592
vn 0.6184 -0.1474 -0.7719
vn 0.4797 0.1396 -0.8662
vn 0.4434 0.1363 -0.8859
vn 0.4852 0.0807 -0.8707
vn 0.3187 0.0712 -0.9452
vn 0.3654 -0.0069 -0.9308
vn 0.2978 -0.0087 -0.9546
vn 0.5543 -0.2418 -0.7964
vn 0.3918 -0.2184 -0.8938
vn 0.2822 0.0090 -0.9593
vn 0.2071 0.0109 -0.9783
vn 0.2556 -0.0825 -0.9632
vn 0.1450 -0.0794 -0.9862
vn -0.8002 -0.1316 -0.5852
vn -0.3292 -0.1014 -0.9388
vn -0.3428 -0.0082 -0.9394
vn -0.5788 -0.2647 -0.7713
vn -0.5693 -0.3864 -0.7257
vn -0.4154 -0.0547 -0.9080
vn -0.3886 -0.4004 -0.8299
vn -0.4771 -0.4358 -0.7632
vn -0.4766 -0.4403 -0.7609
vn -0.1068 -0.1207 -0.9869
vn -0.0682 -0.4141 -0.9077
vn -0.1802 -0.4810 -0.8580
vn -0.1937 -0.4159 -0.8885
vn -0.2893 -0.5120 -0.8088
vn -0.2652 -0.6167 -0.7412
vn -0.4016 0.5991 -0.6927
vn -0.2846 0.3242 -0.9022
vn -0.0197 0.1819 -0.9831
vn -0.4263 0.4393 -0.7908
vn -0.2740 0.4893 -0.8280
vn -0.2751 0.4055 -0.8717
vn -0.3545 0.3744 -0.8568
vn -0.3041 0.3302 -0.8936
vn -0.5047 0.2441 -0.8281
vn -0.0235 0.1576 -0.9872
vn -0.3428 0.0082 -0.9394
vn -0.3769 0.0298 -0.9258
vn -0.3304 0.0570 -0.9421
vn -0.5078 0.1621 -0.8461
vn -0.8048 -0.0397 -0.5922
vn 0.3715 0.5809 -0.7243
vn 0.2237 0.4399 -0.8697
vn 0.0815 0.3020 -0.9498
vn 0.2634 0.5587 -0.7864
vn 0.2908 0.5232 -0.8011
vn 0.1164 0.4112 -0.9041
vn 0.2049 0.3005 -0.9315
vn 0.2978 0.5243 -0.7978
vn 0.1977 0.6551 -0.7292
vn -0.0350 0.2712 -0.9619
vn 0.0327 0.1986 -0.9795
vn 0.0509 0.2640 -0.9632
vn -0.0847 0.3982 -0.9134
vn -0.0521 0.5905 -0.8054
vn -0.1655 0.6901 -0.7046
vn 0.9526 -0.1784 -0.2464
vn 0.8736 0.0275 0.4859
vn 0.7460 0.0840 -0.6607
vn 0.9307 -0.1855 0.3154
vn 0.9449 -0.1556 0.2879
vn 0.7191 0.0205 -0.6946
vn 0.8258 -0.3879 -0.4094
vn 0.9675 -0.1577 -0.1975
vn 0.7958 0.2469 -0.5529
vn 0.9784 0.1419 0.1504
vn 0.9085 -0.1271 0.3980
vn 0.8977 -0.4206 0.1316
vn 0.9162 0.1419 -0.3748
vn 0.9284 0.2783 -0.2463
vn 0.8536 0.3959 -0.3385
vn 0.2045 -0.9599 0.1917
vn 0.1373 -0.8957 0.4229
vn 0.0004 -0.9641 -0.2655
vn 0.1816 -0.8674 0.4633
vn 0.4098 -0.8685 0.2789
vn 0.1496 -0.9787 -0.1406
vn 0.3772 -0.8424 -0.3848
vn 0.3972 -0.8406 -0.3682
vn 0.5323 -0.6631 -0.5263
vn -0.0217 -0.7590 -0.6507
vn 0.0714 -0.6030 -0.7945
vn 0.3494 -0.7697 -0.5344
vn 0.3613 -0.7389 -0.5687
vn 0.5996 -0.7741 -0.2030
vn 0.6221 -0.7313 -0.2796
vn -0.6998 -0.5344 0.4740
vn -0.9442 -0.3284 -0.0241
vn -0.8217 -0.2915 -0.4897
vn -0.7627 -0.5824 0.2813
vn -0.6834 -0.7182 0.1313
vn -0.8215 -0.2877 -0.4923
vn -0.6405 -0.4270 -0.6383
vn -0.5922 -0.6224 -0.5117
vn -0.4086 -0.6724 -0.6172
vn -0.8819 -0.3189 -0.3471
vn -0.7670 -0.4222 -0.4832
vn -0.7799 -0.5242 -0.3420
vn -0.6445 -0.5773 -0.5013
vn -0.6322 -0.7448 -0.2134
vn -0.4493 -0.8198 -0.3550
vn -0.5705 0.6543 0.4965
vn -0.7973 0.5713 0.1949
vn -0.6551 0.6549 -0.3767
vn -0.6686 0.7436 -0.0101
vn -0.7498 0.6486 -0.1310
vn -0.7880 0.5681 -0.2373
vn -0.7793 0.5877 -0.2176
vn -0.7277 0.6282 -0.2753
vn -0.7864 0.2434 -0.5677
vn -0.5510 0.5549 -0.6233
vn -0.4908 0.7221 -0.4876
vn -0.7675 0.5789 -0.2754
vn -0.8088 0.4428 -0.3871
vn -0.9273 0.3041 -0.2184
vn -0.9155 0.0074 -0.4023
vn 0.2974 0.8865 0.3545
vn 0.3991 0.9088 -0.1218
vn 0.5471 0.5157 -0.6594
vn 0.3178 0.9475 -0.0353
vn -0.1068 0.9011 -0.4202
vn 0.3844 0.8712 -0.3054
vn 0.2693 0.8691 -0.4150
vn -0.1120 0.9925 -0.0480
vn 0.0173 0.9978 0.0640
vn 0.5743 0.5500 -0.6064
vn 0.3070 0.5606 -0.7691
vn 0.2128 0.6866 -0.6953
vn 0.2068 0.6851 -0.6985
vn -0.0139 0.8532 -0.5214
vn -0.1592 0.7810 -0.6039
vn 0.5037 -0.6204 0.6011
vn 0.4605 -0.8167 0.3478
vn 0.6091 -0.6402 -0.4681
vn 0.3414 -0.6527 0.6764
vn 0.3599 -0.6064 0.7090
vn 0.6804 -0.7150 0.1607
vn 0.7561 -0.5773 0.3083
vn 0.6642 -0.5071 0.5492
vn 0.6793 -0.3555 0.6421
vn 0.6602 -0.4629 -0.5915
vn 0.8541 -0.3050 -0.4213
vn 0.9418 -0.3359 0.0138
vn 0.9102 0.1521 0.3852
vn 0.9889 0.1433 0.0382
vn 0.9560 -0.2262 -0.1868
vn -0.3522 -0.6216 0.6997
vn -0.4089 -0.8189 0.4028
vn -0.3830 -0.8125 -0.4395
vn -0.3326 -0.6513 0.6820
vn -0.4100 -0.6546 0.6351
vn -0.3941 -0.8339 0.3864
vn -0.2043 -0.8240 0.5285
vn -0.2163 -0.8682 0.4466
vn -0.2310 -0.8697 0.4361
vn -0.4158 -0.8190 -0.3953
vn -0.1505 -0.9825 -0.1094
vn -0.1334 -0.8752 0.4651
vn -0.0147 -0.8357 0.5490
vn -0.0280 -0.9755 0.2182
vn 0.0897 -0.9474 0.3071
vn -0.5990 0.4612 0.6546
vn -0.8853 0.4472 0.1276
vn -0.8122 0.2143 -0.5426
vn -0.6849 0.3909 0.6150
vn -0.5780 0.0154 0.8159
vn -0.9667 0.2528 -0.0390
vn -0.8997 -0.1982 0.3889
vn -0.6811 -0.1696 0.7123
vn -0.7786 -0.0186 0.6272
vn -0.7086 -0.0552 -0.7034
vn -0.7813 -0.3319 -0.5285
vn -0.8984 -0.3826 0.2155
vn -0.9696 -0.2323 0.0775
vn -0.8459 -0.2158 0.4876
vn -0.7096 -0.3751 0.5965
vn -0.0653 0.7622 0.6440
vn -0.2610 0.9266 -0.2707
vn -0.0851 0.9814 0.1720
vn -0.1858 0.8016 0.5683
vn -0.1575 0.8298 0.5354
vn -0.0896 0.9880 -0.1258
vn -0.2975 0.9501 0.0943
vn -0.2658 0.8482 0.4581
vn -0.4372 0.5679 0.6974
vn -0.3009 0.9528 -0.0408
vn -0.3659 0.9302 0.0268
vn -0.3659 0.9304 0.0209
vn -0.6661 0.6558 0.3554
vn -0.5908 0.5530 0.5875
vn -0.5330 0.6644 0.5239
vn 0.9592 0.1578 0.2348
vn 0.8910 0.0415 0.4522
vn 0.7384 0.6442 -0.1993
vn 0.9548 0.0518 0.2926
vn 0.9049 0.1409 0.4015
vn 0.7538 0.6551 -0.0509
vn 0.8713 0.3031 -0.3861
vn 0.8852 0.3440 0.3131
vn 0.6132 0.5098 0.6034
vn 0.7901 0.5970 -0.1391
vn 0.8709 0.2341 -0.4321
vn 0.9101 0.2467 -0.3330
vn 0.5506 0.8012 0.2343
vn 0.5497 0.8001 0.2401
vn 0.3335 0.8439 0.4203
vn 0.0573 0.0709 0.9958
vn 0.1629 -0.2079 0.9645
vn 0.1793 -0.5326 0.8271
vn 0.1773 -0.0136 0.9841
vn 0.2392 0.0171 0.9708
vn 0.2298 -0.2597 0.9380
vn 0.3428 -0.2092 0.9158
vn 0.3534 -0.0627 0.9334
vn 0.2932 -0.0994 0.9509
vn 0.2914 -0.6458 0.7057
vn 0.3749 -0.6228 0.6868
vn 0.4250 -0.2767 0.8619
vn 0.5042 -0.2447 0.8282
vn 0.5051 -0.2145 0.8360
vn 0.7709 -0.0532 0.6347
vn -0.1320 0.0074 0.9912
vn -0.2265 -0.0618 0.9720
vn -0.2171 -0.2413 0.9459
vn -0.1532 -0.0504 0.9869
vn 0.0207 -0.2570 0.9662
vn -0.3055 -0.2533 0.9179
vn -0.1832 -0.4149 0.8912
vn -0.0092 -0.3704 0.9288
vn 0.1646 -0.5375 0.8270
vn -0.3672 -0.6097 0.7025
vn -0.3815 -0.5908 0.7109
vn -0.2353 -0.5663 0.7899
vn -0.1676 -0.6497 0.7415
vn 0.1632 -0.5475 0.8207
vn 0.1364 -0.5244 0.8405
vn -0.0319 -0.1325 0.9907
vn -0.3736 0.0762 0.9244
vn -0.3052 0.2275 0.9247
vn -0.2459 -0.1446 0.9584
vn -0.2144 -0.0800 0.9735
vn -0.2362 0.0675 0.9693
vn -0.2630 0.0235 0.9645
vn -0.2015 -0.0791 0.9763
vn -0.2506 -0.1936 0.9485
vn -0.4706 0.2557 0.8445
vn -0.6251 0.0162 0.7804
vn -0.6330 0.0300 0.7735
vn -0.6618 -0.0167 0.7495
vn -0.5256 -0.2378 0.8168
vn -0.5667 -0.3394 0.7508
vn -0.0310 -0.1312 0.9909
vn -0.0158 0.2686 0.9631
vn 0.0318 0.4682 0.8830
vn -0.1693 0.0385 0.9848
vn -0.3749 0.0741 0.9241
vn -0.0548 0.3683 0.9281
vn -0.4905 0.4432 0.7503
vn -0.5350 0.3097 0.7860
vn -0.2668 0.2811 0.9218
vn -0.1146 0.9097 0.3991
vn -0.1859 0.9119 0.3660
vn -0.5225 0.4960 0.6935
vn -0.3844 0.4861 0.7849
vn -0.3642 0.5151 0.7759
vn -0.4638 0.5276 0.7118
vn 0.0546 -0.1486 0.9874
vn 0.2389 -0.0550 0.9695
vn 0.2944 0.0206 0.9554
vn 0.2546 -0.0597 0.9652
vn 0.2401 0.1788 0.9542
vn 0.3304 -0.0138 0.9437
vn 0.3834 0.1497 0.9114
vn 0.2679 0.2010 0.9423
vn 0.2423 0.3975 0.8851
vn 0.6761 0.1173 0.7274
vn 0.6763 0.1046 0.7291
vn 0.4888 0.2328 0.8408
vn 0.5387 0.4516 0.7113
vn 0.4093 0.5496 0.7283
vn 0.3240 0.8320 0.4503
vt 0.909035 0.253758
vt 0.852095 0.265791
vt 0.879711 0.195837
vt 0.671037 0.278655
vt 0.717736 0.282990
vt 0.699802 0.337651
vt 0.945474 0.199539
vt 0.949392 0.269578
vt 0.899089 0.318438
vt 0.291641 0.054069
vt 0.286258 0.104074
vt 0.236774 0.058374
vt 0.773129 0.016952
vt 0.736899 0.069539
vt 0.722860 0.011371
vt 0.403234 0.522094
vt 0.453024 0.490936
vt 0.442873 0.560096
vt 0.779741 0.706330
vt 0.787584 0.640317
vt 0.837988 0.693679
vt 0.220640 0.307511
vt 0.222668 0.362555
vt 0.167392 0.330123
vt 0.671037 0.093295
vt 0.671037 0.159653
vt 0.629829 0.112449
vt 0.626388 0.460491
vt 0.669642 0.505950
vt 0.624992 0.511867
vt 0.383536 0.581004
vt 0.808813 0.762885
vt 0.180866 0.258235
vt 0.474963 0.199572
vt 0.516958 0.244438
vt 0.453277 0.259692
vt 0.582326 0.708627
vt 0.622524 0.711387
vt 0.585298 0.773369
vt 0.044671 0.554377
vt 0.073819 0.498720
vt 0.097278 0.554920
vt 0.106979 0.820739
vt 0.087509 0.761937
vt 0.151196 0.784286
vt 0.054603 0.105556
vt 0.024373 0.163775
vt 0.003656 0.102559
vt 0.803728 0.062549
vt 0.842232 0.126356
vt 0.769082 0.130948
vt 0.811079 0.204125
vt 0.702340 0.140989
vt 0.737534 0.211818
vt 0.679567 0.216507
vt 0.782224 0.280180
vt 0.247460 0.245365
vt 0.275134 0.314386
vt 0.272190 0.171396
vt 0.303416 0.242920
vt 0.330112 0.165802
vt 0.330112 0.315881
vt 0.758487 0.347077
vt 0.830854 0.332903
vt 0.811259 0.393287
vt 0.882087 0.383632
vt 0.396519 0.464506
vt 0.972356 0.137188
vt 0.939515 0.064179
vt 1.000000 0.074564
vt 0.914628 0.127661
vt 0.459121 0.436042
vt 0.517186 0.462612
vt 0.872631 0.054485
vt 0.897664 0.000000
vt 0.830991 0.000060
vt 0.726826 0.674822
vt 0.673647 0.632574
vt 0.733649 0.593733
vt 0.999578 0.215664
vt 1.000000 0.291512
vt 0.797878 0.558526
vt 0.675995 0.547489
vt 0.743567 0.511066
vt 0.808671 0.483596
vt 0.698385 0.477019
vt 0.758697 0.441142
vt 0.349343 0.522939
vt 0.278288 0.374634
vt 0.381566 0.866265
vt 0.421967 0.915681
vt 0.379396 0.946248
vt 0.222464 0.425680
vt 0.429278 0.992887
vt 0.325796 0.372583
vt 0.280711 0.441591
vt 0.678851 0.717234
vt 0.740045 0.751170
vt 0.703551 0.785173
vt 0.429278 0.837369
vt 0.942836 0.338299
vt 0.991484 0.361342
vt 0.571002 0.837369
vt 0.571002 0.898565
vt 0.524281 0.875848
vt 0.172859 0.059438
vt 0.151748 0.116896
vt 0.105847 0.074499
vt 0.220508 0.114213
vt 0.082570 0.140085
vt 0.131524 0.199934
vt 0.200867 0.184129
vt 0.466849 0.139579
vt 0.526104 0.168797
vt 0.454953 0.062888
vt 0.521653 0.091306
vt 0.449034 0.006386
vt 0.513236 0.021247
vt 0.586242 0.132589
vt 0.577351 0.064185
vt 0.680085 0.074626
vt 0.570095 0.000000
vt 0.629632 0.043542
vt 0.542754 0.660901
vt 0.606232 0.645464
vt 0.491153 0.606412
vt 0.561805 0.584740
vt 0.506151 0.536343
vt 0.624667 0.572058
vt 0.569439 0.518989
vt 0.579871 0.451878
vt 0.002753 0.594955
vt 0.010474 0.522196
vt 0.902630 0.671915
vt 0.911992 0.590828
vt 0.952754 0.644525
vt 0.852230 0.613904
vt 0.971774 0.569036
vt 0.925893 0.509767
vt 0.862634 0.535784
vt 0.865091 0.469473
vt 0.330112 0.601492
vt 0.094356 0.880171
vt 0.048823 0.822706
vt 0.103357 0.360391
vt 0.100839 0.420765
vt 0.044073 0.376212
vt 0.163780 0.406235
vt 0.041565 0.430348
vt 0.802791 0.854163
vt 0.840309 0.806060
vt 0.872838 0.854163
vt 0.161021 0.465844
vt 0.379396 1.000000
vt 0.330112 0.954174
vt 0.374290 0.919173
vt 0.332444 0.874060
vt 0.728648 0.851434
vt 0.769078 0.814150
vt 0.581487 0.216140
vt 0.642079 0.183298
vt 0.568518 0.300585
vt 0.632761 0.271618
vt 0.611945 0.347639
vt 0.673647 0.908304
vt 0.712573 0.854163
vt 0.712573 0.923930
vt 0.193892 0.000000
vt 0.119919 0.014988
vt 0.665545 0.317447
vt 0.056795 0.048639
vt 0.653323 0.643559
vt 0.673647 0.568017
vt 0.482737 0.865348
vt 0.524281 0.837369
vt 0.524281 0.914254
vt 0.673647 0.715388
vt 0.392462 0.050632
vt 0.405259 0.124749
vt 0.347463 0.119127
vt 0.360681 0.188203
vt 0.417199 0.192616
vt 0.358164 0.656422
vt 0.402901 0.719761
vt 0.350419 0.735774
vt 0.921912 0.436042
vt 0.401728 0.789584
vt 0.465110 0.765294
vt 0.419843 0.627955
vt 0.476403 0.687413
vt 0.529817 0.739951
vt 0.912215 0.801215
vt 0.379396 0.837369
vt 0.019794 0.749815
vt 0.065843 0.686527
vt 0.875450 0.746635
vt 0.944236 0.725070
vt 0.000000 0.664661
vt 0.051767 0.611518
vt 0.062422 0.220026
vt 0.116628 0.278597
vt 0.010287 0.241222
vt 0.055615 0.300130
vt 0.000000 0.317921
vt 0.156568 0.853084
vt 0.321080 0.618709
vt 0.296943 0.686019
vt 0.273263 0.628273
vt 0.426165 0.334290
vt 0.476299 0.385979
vt 0.407935 0.395943
vt 0.497399 0.321841
vt 0.455472 0.436042
vt 0.523468 0.429689
vt 0.548603 0.377658
vt 0.592065 0.417703
vt 0.267402 0.572161
vt 0.251445 0.509883
vt 0.314150 0.552020
vt 0.606739 0.839657
vt 0.651287 0.837369
vt 0.651287 0.900305
vt 0.361990 0.335730
vt 0.429278 0.891262
vt 0.482737 0.837369
vt 0.482737 0.904935
vt 0.330112 0.257736
vt 0.385555 0.262531
vt 0.634315 0.781913
vt 0.712573 0.909673
vt 0.726042 0.854163
vt 0.753135 0.909673
vt 0.164142 0.573404
vt 0.208957 0.534146
vt 0.231239 0.593595
vt 0.141431 0.503689
vt 0.606739 0.916480
vt 0.571002 0.881222
vt 0.606739 0.837369
vt 0.190039 0.465844
vt 0.524529 0.812498
vt 0.576234 0.828857
vt 0.454779 0.837369
vt 0.249386 0.671052
vt 0.203154 0.728968
vt 0.186487 0.645225
vt 0.132457 0.707533
vt 0.114469 0.625876
vt 0.311249 0.759646
vt 0.260719 0.747108
vt 0.321080 0.833081
vt 0.267865 0.820799
vt 0.212592 0.807266
vt 0.268762 0.887540
vt 0.213350 0.872368
s 0
usemtl Material.001
f 1/1/1 16/2/1 15/3/1
f 2/4/2 18/5/2 24/6/2
f 1/1/3 15/3/3 30/7/3
f 1/1/4 30/7/4 36/8/4
f 1/1/5 36/8/5 25/9/5
f 2/10/6 24/11/6 45/12/6
f 3/13/7 21/14/7 51/15/7
f 4/16/8 33/17/8 57/18/8
f 5/19/9 39/20/9 63/21/9
f 6/22/10 42/23/10 69/24/10
f 2/25/11 45/26/11 52/27/11
f 3/28/12 51/29/12 58/30/12
f 4/16/13 57/18/13 64/31/13
f 5/19/14 63/21/14 70/32/14
f 6/22/15 69/24/15 46/33/15
f 7/34/16 75/35/16 90/36/16
f 8/37/17 78/38/17 96/39/17
f 9/40/18 81/41/18 99/42/18
f 10/43/19 84/44/19 102/45/19
f 11/46/20 87/47/20 91/48/20
f 13/49/21 21/14/21 3/13/21
f 14/50/22 103/51/22 13/49/22
f 15/3/23 104/52/23 14/50/23
f 13/49/24 103/51/24 21/14/24
f 103/51/25 20/53/25 21/14/25
f 14/50/26 104/52/26 103/51/26
f 104/52/27 105/54/27 103/51/27
f 103/51/28 105/54/28 20/53/28
f 105/54/29 19/55/29 20/53/29
f 15/3/30 16/2/30 104/52/30
f 16/2/31 17/56/31 104/52/31
f 104/52/32 17/56/32 105/54/32
f 17/56/33 18/5/33 105/54/33
f 105/54/34 18/5/34 19/55/34
f 18/5/35 2/4/35 19/55/35
f 22/57/36 27/58/36 6/22/36
f 23/59/37 106/60/37 22/57/37
f 24/11/38 107/61/38 23/59/38
f 22/57/39 106/60/39 27/58/39
f 106/60/40 26/62/40 27/58/40
f 23/59/41 107/61/41 106/60/41
f 107/63/42 108/64/42 106/65/42
f 106/65/43 108/64/43 26/66/43
f 108/64/44 25/9/44 26/66/44
f 24/6/45 18/5/45 107/63/45
f 18/5/46 17/56/46 107/63/46
f 107/63/47 17/56/47 108/64/47
f 17/56/48 16/2/48 108/64/48
f 108/64/49 16/2/49 25/9/49
f 16/2/50 1/1/50 25/9/50
f 28/67/51 33/17/51 4/16/51
f 29/68/52 109/69/52 28/70/52
f 30/7/53 110/71/53 29/68/53
f 28/67/54 109/72/54 33/17/54
f 109/72/55 32/73/55 33/17/55
f 29/68/56 110/71/56 109/69/56
f 110/71/57 111/74/57 109/69/57
f 109/69/58 111/74/58 32/75/58
f 111/74/59 31/76/59 32/75/59
f 30/7/60 15/3/60 110/71/60
f 15/3/61 14/50/61 110/71/61
f 110/71/62 14/50/62 111/74/62
f 14/50/63 13/49/63 111/74/63
f 111/74/64 13/49/64 31/76/64
f 13/49/65 3/13/65 31/76/65
f 34/77/66 39/20/66 5/19/66
f 35/78/67 112/79/67 34/77/67
f 36/8/68 113/80/68 35/81/68
f 34/77/69 112/79/69 39/20/69
f 112/79/70 38/82/70 39/20/70
f 35/78/71 113/83/71 112/79/71
f 113/83/72 114/84/72 112/79/72
f 112/79/73 114/84/73 38/82/73
f 114/84/74 37/85/74 38/82/74
f 36/8/75 30/7/75 113/80/75
f 30/7/76 29/68/76 113/80/76
f 113/83/77 29/86/77 114/84/77
f 29/86/78 28/87/78 114/84/78
f 114/84/79 28/87/79 37/85/79
f 28/67/80 4/16/80 37/88/80
f 27/58/81 42/23/81 6/22/81
f 26/62/82 115/89/82 27/58/82
f 25/90/83 116/91/83 26/92/83
f 27/58/84 115/89/84 42/23/84
f 115/89/85 41/93/85 42/23/85
f 26/92/86 116/91/86 115/94/86
f 116/95/87 117/96/87 115/89/87
f 115/89/88 117/96/88 41/93/88
f 117/97/89 40/98/89 41/99/89
f 25/90/90 36/100/90 116/91/90
f 36/8/91 35/81/91 116/101/91
f 116/101/92 35/81/92 117/102/92
f 35/78/93 34/77/93 117/97/93
f 117/97/94 34/77/94 40/98/94
f 34/77/95 5/19/95 40/98/95
f 43/103/96 48/104/96 11/105/96
f 44/106/97 118/107/97 43/108/97
f 45/12/98 119/109/98 44/106/98
f 43/108/99 118/107/99 48/110/99
f 118/107/100 47/111/100 48/110/100
f 44/106/101 119/109/101 118/107/101
f 119/109/102 120/112/102 118/107/102
f 118/107/103 120/112/103 47/111/103
f 120/112/104 46/33/104 47/111/104
f 45/12/105 24/11/105 119/109/105
f 24/11/106 23/59/106 119/109/106
f 119/109/107 23/59/107 120/112/107
f 23/59/108 22/57/108 120/112/108
f 120/112/109 22/57/109 46/33/109
f 22/57/110 6/22/110 46/33/110
f 49/113/111 54/114/111 7/34/111
f 50/115/112 121/116/112 49/113/112
f 51/117/113 122/118/113 50/115/113
f 49/113/114 121/116/114 54/114/114
f 121/116/115 53/119/115 54/114/115
f 50/115/116 122/118/116 121/116/116
f 122/118/117 123/120/117 121/116/117
f 121/116/118 123/120/118 53/119/118
f 123/120/119 52/27/119 53/119/119
f 51/15/120 21/14/120 122/121/120
f 21/14/121 20/53/121 122/121/121
f 122/118/122 20/122/122 123/120/122
f 20/122/123 19/123/123 123/120/123
f 123/120/124 19/123/124 52/27/124
f 19/123/125 2/25/125 52/27/125
f 55/124/126 60/125/126 8/37/126
f 56/126/127 124/127/127 55/124/127
f 57/18/128 125/128/128 56/126/128
f 55/124/129 124/127/129 60/125/129
f 124/127/130 59/129/130 60/125/130
f 56/126/131 125/128/131 124/127/131
f 125/128/132 126/130/132 124/127/132
f 124/127/133 126/130/133 59/129/133
f 126/130/134 58/30/134 59/129/134
f 57/18/135 33/17/135 125/128/135
f 33/17/136 32/73/136 125/128/136
f 125/128/137 32/73/137 126/130/137
f 32/73/138 31/131/138 126/130/138
f 126/130/139 31/131/139 58/30/139
f 31/131/140 3/28/140 58/30/140
f 61/132/141 66/133/141 9/40/141
f 62/134/142 127/135/142 61/136/142
f 63/21/143 128/137/143 62/134/143
f 61/136/144 127/135/144 66/138/144
f 127/135/145 65/139/145 66/138/145
f 62/134/146 128/137/146 127/135/146
f 128/137/147 129/140/147 127/135/147
f 127/135/148 129/140/148 65/139/148
f 129/140/149 64/141/149 65/139/149
f 63/21/150 39/20/150 128/137/150
f 39/20/151 38/82/151 128/137/151
f 128/137/152 38/82/152 129/140/152
f 38/82/153 37/85/153 129/140/153
f 129/142/154 37/88/154 64/31/154
f 37/88/155 4/16/155 64/31/155
f 67/143/156 72/144/156 10/43/156
f 68/145/157 130/146/157 67/147/157
f 69/24/158 131/148/158 68/145/158
f 67/147/159 130/146/159 72/149/159
f 130/150/160 71/151/160 72/152/160
f 68/145/161 131/148/161 130/146/161
f 131/148/162 132/153/162 130/146/162
f 130/154/163 132/155/163 71/156/163
f 132/155/164 70/157/164 71/156/164
f 69/24/165 42/23/165 131/148/165
f 42/23/166 41/93/166 131/148/166
f 131/158/167 41/99/167 132/159/167
f 41/99/168 40/98/168 132/159/168
f 132/159/169 40/98/169 70/32/169
f 40/98/170 5/19/170 70/32/170
f 54/114/171 75/35/171 7/34/171
f 53/119/172 133/160/172 54/114/172
f 52/27/173 134/161/173 53/119/173
f 54/114/174 133/160/174 75/35/174
f 133/160/175 74/162/175 75/35/175
f 53/119/176 134/161/176 133/160/176
f 134/161/177 135/163/177 133/160/177
f 133/160/178 135/163/178 74/162/178
f 135/163/179 73/164/179 74/162/179
f 52/165/180 45/166/180 134/167/180
f 45/12/181 44/106/181 134/168/181
f 134/168/182 44/106/182 135/169/182
f 44/106/183 43/108/183 135/169/183
f 135/163/184 43/170/184 73/164/184
f 43/108/185 11/46/185 73/171/185
f 60/125/186 78/38/186 8/37/186
f 59/129/187 136/172/187 60/125/187
f 58/30/188 137/173/188 59/129/188
f 60/174/189 136/175/189 78/176/189
f 136/172/190 77/177/190 78/38/190
f 59/129/191 137/173/191 136/172/191
f 137/178/192 138/179/192 136/180/192
f 136/180/193 138/179/193 77/181/193
f 138/179/194 76/182/194 77/181/194
f 58/30/195 51/29/195 137/173/195
f 51/117/196 50/115/196 137/178/196
f 137/178/197 50/115/197 138/179/197
f 50/115/198 49/113/198 138/179/198
f 138/179/199 49/113/199 76/182/199
f 49/113/200 7/34/200 76/182/200
f 66/133/201 81/41/201 9/40/201
f 65/183/202 139/184/202 66/185/202
f 64/141/203 140/186/203 65/139/203
f 66/185/204 139/184/204 81/187/204
f 139/184/205 80/188/205 81/187/205
f 65/183/206 140/189/206 139/184/206
f 140/189/207 141/190/207 139/184/207
f 139/184/208 141/190/208 80/188/208
f 141/190/209 79/191/209 80/188/209
f 64/31/210 57/18/210 140/189/210
f 57/18/211 56/126/211 140/189/211
f 140/189/212 56/126/212 141/190/212
f 56/126/213 55/124/213 141/190/213
f 141/190/214 55/124/214 79/191/214
f 55/124/215 8/37/215 79/191/215
f 72/144/216 84/44/216 10/43/216
f 71/151/217 142/192/217 72/152/217
f 70/157/218 143/193/218 71/156/218
f 72/144/219 142/194/219 84/44/219
f 142/194/220 83/195/220 84/44/220
f 71/151/221 143/196/221 142/192/221
f 143/196/222 144/197/222 142/192/222
f 142/194/223 144/198/223 83/195/223
f 144/198/224 82/199/224 83/195/224
f 70/32/225 63/21/225 143/196/225
f 63/21/226 62/134/226 143/196/226
f 143/196/227 62/134/227 144/197/227
f 62/134/228 61/136/228 144/197/228
f 144/198/229 61/132/229 82/199/229
f 61/132/230 9/40/230 82/199/230
f 48/110/231 87/47/231 11/46/231
f 47/111/232 145/200/232 48/110/232
f 46/33/233 146/201/233 47/111/233
f 48/110/234 145/200/234 87/47/234
f 145/200/235 86/202/235 87/47/235
f 47/111/236 146/201/236 145/200/236
f 146/201/237 147/203/237 145/200/237
f 145/200/238 147/203/238 86/202/238
f 147/203/239 85/204/239 86/202/239
f 46/33/240 69/24/240 146/201/240
f 69/24/241 68/145/241 146/201/241
f 146/201/242 68/145/242 147/203/242
f 68/145/243 67/147/243 147/203/243
f 147/203/244 67/147/244 85/204/244
f 67/143/245 10/43/245 85/205/245
f 88/206/246 93/207/246 12/208/246
f 89/209/247 148/210/247 88/211/247
f 90/36/248 149/212/248 89/209/248
f 88/211/249 148/210/249 93/213/249
f 148/210/250 92/214/250 93/213/250
f 89/209/251 149/212/251 148/210/251
f 149/212/252 150/215/252 148/210/252
f 148/210/253 150/215/253 92/214/253
f 150/215/254 91/216/254 92/214/254
f 90/36/255 75/35/255 149/212/255
f 75/35/256 74/162/256 149/212/256
f 149/212/257 74/162/257 150/215/257
f 74/162/258 73/164/258 150/215/258
f 150/215/259 73/164/259 91/216/259
f 73/171/260 11/46/260 91/48/260
f 94/217/261 88/206/261 12/208/261
f 95/218/262 151/219/262 94/217/262
f 96/220/263 152/221/263 95/222/263
f 94/217/264 151/219/264 88/206/264
f 151/223/265 89/209/265 88/211/265
f 95/224/266 152/225/266 151/226/266
f 152/227/267 153/228/267 151/223/267
f 151/223/268 153/228/268 89/209/268
f 153/228/269 90/36/269 89/209/269
f 96/39/270 78/38/270 152/229/270
f 78/38/271 77/177/271 152/229/271
f 152/227/272 77/181/272 153/228/272
f 77/181/273 76/182/273 153/228/273
f 153/228/274 76/182/274 90/36/274
f 76/182/275 7/34/275 90/36/275
f 97/230/276 94/231/276 12/232/276
f 98/233/277 154/234/277 97/235/277
f 99/42/278 155/236/278 98/233/278
f 97/237/279 154/238/279 94/239/279
f 154/234/280 95/218/280 94/217/280
f 98/233/281 155/236/281 154/234/281
f 155/236/282 156/240/282 154/234/282
f 154/234/283 156/240/283 95/218/283
f 156/241/284 96/39/284 95/242/284
f 99/42/285 81/41/285 155/236/285
f 81/187/286 80/188/286 155/243/286
f 155/243/287 80/188/287 156/241/287
f 80/188/288 79/191/288 156/241/288
f 156/241/289 79/191/289 96/39/289
f 79/191/290 8/37/290 96/39/290
f 100/244/291 97/235/291 12/208/291
f 101/245/292 157/246/292 100/244/292
f 102/45/293 158/247/293 101/245/293
f 100/244/294 157/246/294 97/235/294
f 157/246/295 98/233/295 97/235/295
f 101/245/296 158/247/296 157/246/296
f 158/247/297 159/248/297 157/246/297
f 157/246/298 159/248/298 98/233/298
f 159/248/299 99/42/299 98/233/299
f 102/45/300 84/44/300 158/247/300
f 84/44/301 83/195/301 158/247/301
f 158/247/302 83/195/302 159/248/302
f 83/195/303 82/199/303 159/248/303
f 159/248/304 82/199/304 99/42/304
f 82/199/305 9/40/305 99/42/305
f 93/207/306 100/244/306 12/208/306
f 92/249/307 160/250/307 93/207/307
f 91/251/308 161/252/308 92/249/308
f 93/207/309 160/250/309 100/244/309
f 160/250/310 101/245/310 100/244/310
f 92/249/311 161/252/311 160/250/311
f 161/252/312 162/253/312 160/250/312
f 160/250/313 162/253/313 101/245/313
f 162/253/314 102/45/314 101/245/314
f 91/251/315 87/254/315 161/252/315
f 87/254/316 86/255/316 161/252/316
f 161/252/317 86/255/317 162/253/317
f 86/255/318 85/205/318 162/253/318
f 162/253/319 85/205/319 102/45/319
f 85/205/320 10/43/320 102/45/320
